<svg width="41" height="40" viewBox="0 0 41 40" fill="none" xmlns="http://www.w3.org/2000/svg">
<path d="M18.2547 21.1965C18.2547 21.1965 18.8675 19.2083 19.0086 18.7373C19.0086 18.7373 16.4444 6.12299 6.69821 5.652C6.69821 5.652 1.43428 5.18474 0.292372 9.73267C-0.645295 13.4652 0.619163 17.6539 4.6372 20.6138C4.6372 20.6138 8.48814 23.9238 17.3802 23.9238L17.7497 22.8124C17.7497 22.8124 5.79026 22.4643 3.83322 15.2263C2.94198 11.9257 4.65577 9.44226 7.65259 9.53348C9.22342 9.58002 11.2603 9.79225 13.5404 12.3557C15.8261 14.9229 17.0701 17.006 18.2547 21.1984" fill="#0C8870"/>
<path d="M23.5432 22.8458C23.5432 22.8458 23.3928 23.4043 23.1904 23.9572C23.1904 23.9572 29.6594 24.2178 33.9801 22.3041C37.766 20.6267 41.7358 15.5669 40.1409 10.116C39.595 8.24696 37.2777 5.11572 33.0573 5.73378C30.7623 6.06887 24.4252 7.29195 21.4507 17.058C18.8883 25.4688 19.3414 24.4635 17.3806 30.4077C15.9286 34.8141 13.0061 37.4446 10.1968 36.4524C8.80237 35.9609 7.50635 33.5482 10.013 30.4226C11.8716 28.1049 13.6355 26.932 16.5488 26.2265L16.8682 25.48C16.8682 25.48 11.3926 25.5879 8.19149 29.0636C8.19149 29.0636 4.48539 32.1855 5.64215 36.618C5.64215 36.618 6.0952 39.2373 8.95834 39.8926C8.95834 39.8926 14.3838 41.153 17.2989 35.9646C17.2989 35.9646 19.0907 32.5225 20.2586 27.9894C21.2891 23.9888 21.3634 23.3931 23.8385 16.5219C25.7361 11.2498 29.5276 9.10145 33.2578 9.71392C36.1581 10.1924 37.9759 13.6419 36.2454 17.4601C35.1833 19.8002 31.934 22.3915 23.5432 22.8495" fill="#0C8870"/>
<path d="M22.7135 26.1876L22.94 25.4336C22.94 25.4336 26.2265 25.4727 29.24 26.6827C32.3706 27.9375 36.9345 32.3197 34.4483 37.307C33.778 38.6492 31.678 41.2257 26.9711 39.3864C24.5443 38.4389 21.7127 35.2574 21.3989 31.1544C21.3989 31.1544 21.6422 30.1919 22.2029 27.904C22.2029 27.904 23.1907 36.4395 28.8891 36.6703C31.2881 36.769 32.4355 34.3396 31.7021 32.0461C30.796 29.2145 28.5252 27.3995 22.7135 26.1913" fill="#0C8870"/>
<path d="M20.2525 7.77794C18.6984 7.77794 17.3281 6.95882 17.3281 5.25544C17.3281 2.7888 19.3854 0.00195312 20.2525 0.00195312C21.1196 0.00195312 23.1751 2.7888 23.1751 5.25544C23.1751 6.96069 21.8066 7.77794 20.2525 7.77794Z" fill="#0C8870"/>
</svg>
